<svg width="275" height="37" viewBox="0 0 275 37" fill="none" xmlns="http://www.w3.org/2000/svg">
<path d="M256.44 18.6282C256.398 22.3451 256.144 27.2869 255.764 30.8771C255.468 34.0449 253.694 36.5369 250.189 36.5369C246.598 36.5369 244.867 34.0449 244.571 30.8771C243.726 22.8519 243.726 14.0243 244.571 6.04142C244.867 2.91584 246.598 0.423828 250.189 0.423828C252.216 0.423828 253.652 1.22634 254.581 2.49347C258.383 7.39302 260.368 13.8976 263.662 19.304C263.958 20.022 264.845 19.5997 264.423 18.7971C263.536 16.9809 262.86 15.756 261.973 14.151C262.1 11.3633 262.269 8.32224 262.48 6.04142C262.902 2.91584 264.592 0.423828 268.14 0.423828C271.688 0.423828 273.377 2.91584 273.799 6.04142C274.602 14.0243 274.602 22.8519 273.799 30.8771C273.377 34.0449 271.688 36.5369 268.14 36.5369C265.69 36.5369 264.212 35.2698 263.24 33.538C261.044 29.6522 258.974 23.0209 256.44 18.6282Z" fill="white"/>
<path d="M224.37 24.6679C224.285 26.7375 224.116 28.8072 223.905 30.8346C223.609 34.0024 221.835 36.4944 218.33 36.4944C214.739 36.4944 213.008 34.0024 212.712 30.8346C212.163 25.8083 212.078 20.4441 212.121 15.2067C212.205 3.08451 215.964 0.0856474 227.073 0.00117347C235.816 -0.0833005 240.631 4.39387 240.547 13.137C240.547 19.0081 238.646 22.3871 233.957 24.1188C233.239 24.33 233.535 25.1747 234.211 25.0058C235.436 24.7524 236.787 23.9921 237.886 23.274C239.364 24.5412 240.884 26.3996 241.814 29.0183C242.785 31.806 241.94 34.4247 238.73 35.8608C235.267 37.4658 231.085 35.9031 229.142 32.693C227.833 30.5389 227.031 27.709 226.777 24.7524C225.975 24.7524 225.172 24.7101 224.37 24.6679ZM229.565 14.3619C227.58 13.6439 226.059 12.7991 224.496 11.1941C223.989 10.7295 223.018 11.6587 223.567 12.419C224.792 14.0663 226.904 15.0377 228.889 15.7558C229.776 16.0514 230.156 14.6576 229.565 14.3619Z" fill="white"/>
<path d="M193.699 29.3143C193.868 32.651 192.685 36.5369 187.785 36.5369C184.533 36.5369 182.168 34.4673 181.957 31.215C181.788 27.0757 181.703 22.7675 181.703 18.4592C181.703 8.36448 184.702 0.423828 195.768 0.423828C206.877 0.423828 209.918 8.36448 209.918 18.4592C209.918 22.7675 209.833 27.0757 209.622 31.215C209.453 34.4673 207.046 36.5369 203.751 36.5369C198.936 36.5369 197.669 32.6088 197.838 29.3143C196.022 29.7789 195.557 29.7789 193.699 29.3143ZM199.401 17.7834C197.711 16.5163 195.473 16.2207 193.361 16.1362C192.389 16.0939 192.389 17.5723 193.107 17.6567C195.177 17.7834 196.909 18.1636 198.894 19.2195C199.485 19.5574 200.161 18.2481 199.401 17.7834Z" fill="white"/>
<path d="M153.155 30.0319C152.733 26.4418 152.648 22.6404 152.648 18.4166C152.648 14.1929 152.733 10.3915 153.155 6.84355C153.747 1.43715 160.336 0.043308 166.418 0.00107099C172.838 -0.041166 179.554 1.14148 179.554 7.89949C179.554 10.6449 178.54 11.2785 175.203 10.3915C174.105 10.0958 172.796 9.88465 171.74 9.88465C168.699 9.88465 166.629 10.3493 164.813 11.0673C163.926 11.4052 164.222 12.6301 165.193 12.2499C168.91 10.9406 174.401 10.8139 176.682 12.2077C178.624 13.4326 179.554 15.2488 179.554 18.4166C179.554 21.5844 178.624 23.4429 176.682 24.6255C174.401 26.0616 168.91 25.9349 165.193 24.5833C164.222 24.2454 163.926 25.4281 164.813 25.766C166.629 26.484 168.699 26.9064 171.74 26.9064C172.796 26.9064 174.105 26.7374 175.203 26.4418C178.54 25.597 179.554 26.1883 179.554 28.8915C179.554 35.6495 172.838 36.8744 166.418 36.8322C160.336 36.7899 153.747 35.3539 153.155 30.0319Z" fill="white"/>
<path d="M129.547 24.0346C124.437 20.7823 120.847 13.0528 119.875 6.50603C119.241 1.94438 122.663 0.423828 126.211 0.423828C130.815 0.423828 133.011 2.49347 133.349 7.18183C133.518 9.63161 134.067 13.6019 135.081 16.812C135.418 17.8679 136.601 17.4033 136.39 16.5586C135.799 14.1088 135.25 9.84279 135.038 7.64644C134.447 1.85991 138.037 0.423828 143.148 0.423828C149.146 0.423828 151.722 3.25374 150.666 8.02658C149.146 14.9113 145.724 21.5426 141.839 24.0346C141.712 25.5974 141.627 29.3988 141.458 30.8771C141.121 34.0449 139.22 36.5369 135.714 36.5369C132.082 36.5369 130.223 34.0027 129.885 30.8771C129.674 28.5118 129.674 26.3999 129.547 24.0346Z" fill="white"/>
<path d="M91.6631 30.0319C91.2407 26.4418 91.1562 22.6404 91.1562 18.4166C91.1562 14.1929 91.2407 10.3915 91.6631 6.84355C92.2544 1.43715 98.8435 0.043308 104.926 0.00107099C111.346 -0.041166 118.062 1.14148 118.062 7.89949C118.062 10.6449 117.048 11.2785 113.711 10.3915C112.613 10.0958 111.304 9.88465 110.248 9.88465C107.207 9.88465 105.137 10.3493 103.321 11.0673C102.434 11.4052 102.729 12.6301 103.701 12.2499C107.418 10.9406 112.909 10.8139 115.189 12.2077C117.132 13.4326 118.062 15.2488 118.062 18.4166C118.062 21.5844 117.132 23.4429 115.189 24.6255C112.909 26.0616 107.418 25.9349 103.701 24.5833C102.729 24.2454 102.434 25.4281 103.321 25.766C105.137 26.484 107.207 26.9064 110.248 26.9064C111.304 26.9064 112.613 26.7374 113.711 26.4418C117.048 25.597 118.062 26.1883 118.062 28.8915C118.062 35.6495 111.346 36.8744 104.926 36.8322C98.8435 36.7899 92.2544 35.3539 91.6631 30.0319Z" fill="white"/>
<path d="M75.2186 36.5369C64.8282 36.5369 60.9846 25.3862 60.9001 13.3485C60.8157 6.46379 63.899 0.423828 69.3899 0.423828C74.923 0.423828 77.2883 5.15443 77.2883 11.2366C77.2883 16.1784 76.3168 21.8382 72.5154 25.5129C72.1353 25.8508 72.0086 26.062 72.262 26.3154C72.5154 26.6111 72.7689 26.8223 73.2335 26.4421C77.3728 22.4718 78.3442 17.2344 78.2597 9.58937C78.2175 4.43639 79.4002 0.423828 83.9618 0.423828C88.0588 0.423828 89.7061 4.39416 89.326 14.1933C88.9036 25.7663 83.7506 36.5369 75.2186 36.5369Z" fill="white"/>
<path d="M42.8568 29.3143C43.0257 32.651 41.8431 36.5369 36.9435 36.5369C33.6912 36.5369 31.3259 34.4673 31.1148 31.215C30.9458 27.0757 30.8613 22.7675 30.8613 18.4592C30.8613 8.36448 33.8602 0.423828 44.9264 0.423828C56.0349 0.423828 59.076 8.36448 59.076 18.4592C59.076 22.7675 58.9915 27.0757 58.7803 31.215C58.6114 34.4673 56.2038 36.5369 52.9093 36.5369C48.0942 36.5369 46.8271 32.6088 46.9961 29.3143C45.1798 29.7789 44.7152 29.7789 42.8568 29.3143ZM48.5588 17.7834C46.8693 16.5163 44.6308 16.2207 42.5189 16.1362C41.5474 16.0939 41.5474 17.5723 42.2655 17.6567C44.3351 17.7834 46.0668 18.1636 48.052 19.2195C48.6433 19.5574 49.3191 18.2481 48.5588 17.7834Z" fill="white"/>
<path d="M17.0471 26.146C17.3005 26.4417 18.0608 26.146 17.8496 25.5969C16.2446 22.049 12.8233 17.8252 8.21944 17.1494C3.40437 16.3469 0.363265 13.8549 0.363265 8.91309C0.363265 3.50669 6.1498 0.000976562 13.9637 0.000976562C19.8348 0.000976562 28.409 2.15509 27.9866 8.61743C27.7332 12.7989 24.7343 14.235 21.651 14.235C19.3701 14.235 17.5962 13.0101 15.9067 11.5318C14.1327 9.96903 12.8233 8.95533 11.0071 7.13912C10.3736 6.50555 9.69775 7.26583 10.2468 7.81491C12.3587 10.1802 15.7377 13.7704 22.1578 16.3891C25.917 17.9097 29.5071 21.2042 29.0425 27.0752C28.5779 33.2841 22.2001 36.8321 14.7663 36.8321C7.12127 36.8321 1.12354 33.2419 0.152077 26.864C-0.523723 22.3869 0.95459 17.9097 6.57218 17.9097C11.8941 17.9097 14.8507 22.2179 17.0471 26.146Z" fill="white"/>
</svg>
