<svg width="26" height="25" viewBox="0 0 26 25" fill="none" xmlns="http://www.w3.org/2000/svg">
<path d="M12.7393 0C14.2621 0 15.4949 0.323652 16.3438 1.06055H16.3447C17.0222 1.62513 17.5403 2.26338 17.8838 2.97656C18.4544 2.9934 19.0056 3.05322 19.5371 3.15918H19.5381C20.2209 3.28923 20.836 3.51957 21.375 3.85645C21.9286 4.20255 22.3578 4.68418 22.665 5.28613H22.666C23.0249 5.89624 23.1846 6.65292 23.1846 7.52051C23.1845 7.82748 23.1508 8.12334 23.0801 8.40625L23.0781 8.41406L23.0752 8.42285L22.8955 9.05273L22.709 9.6582C22.6827 9.73701 22.6654 9.8141 22.6553 9.88965C22.7836 9.98866 22.9183 10.1092 23.0586 10.248C23.4751 10.6012 23.8992 11.043 24.3311 11.5674H24.3301C24.8546 12.1676 25.1201 12.8813 25.1201 13.6855C25.1201 14.2282 25.0176 14.7275 24.7969 15.1689L24.7959 15.168C24.6649 15.4522 24.4981 15.7165 24.2939 15.959L24.0732 16.1982C23.7969 16.4746 23.4603 16.7252 23.0713 16.9521L23.0654 16.9561L23.0586 16.959C22.8447 17.0757 22.6243 17.1912 22.3984 17.3076C22.4998 17.6523 22.5547 17.9904 22.5547 18.3203C22.5547 18.8709 22.4344 19.3841 22.1865 19.8496C21.9675 20.3172 21.6386 20.6986 21.207 20.9863L21.2061 20.9854C20.8179 21.2638 20.3577 21.4643 19.8359 21.5947L19.8125 21.6006C19.3809 21.6869 18.9322 21.6981 18.4688 21.6426C17.7772 22.414 17.0609 23.018 16.3135 23.4365L16.3076 23.4404L16.3008 23.4434C15.4608 23.8802 14.4454 24.085 13.2793 24.085C12.3853 24.0849 11.5383 23.8686 10.7461 23.4395L10.7354 23.4336L10.7246 23.4268C10.0722 23.0296 9.45948 22.5914 8.88379 22.1152C8.76042 22.1296 8.63413 22.1595 8.50488 22.208L8.48633 22.2158L8.4668 22.2207C8.19902 22.2972 7.89485 22.3301 7.56445 22.3301C6.90208 22.3301 6.27998 22.2169 5.7041 21.9844L5.46094 21.877C4.83542 21.5807 4.28831 21.1837 3.82422 20.6865L3.81836 20.6807L3.81348 20.6748C3.413 20.2171 3.08761 19.7088 2.83789 19.1523L2.73535 18.9111C2.47016 18.2482 2.33984 17.5393 2.33984 16.79C2.33985 16.6103 2.35707 16.4362 2.39746 16.2715C1.76343 15.9618 1.22118 15.516 0.777344 14.9336L0.772461 14.9268L0.767578 14.9209C0.256521 14.2054 0 13.398 0 12.5146C6.53552e-05 11.517 0.208348 10.6219 0.644531 9.84668L0.823242 9.54883C1.1927 8.98434 1.68355 8.54057 2.28809 8.21973C2.16982 7.31325 2.23444 6.47899 2.50391 5.73047C2.80018 4.87756 3.26761 4.17079 3.91211 3.62793C4.54642 3.09377 5.28202 2.74282 6.10938 2.57617C6.83729 2.40921 7.56684 2.39754 8.29395 2.53809C8.60202 1.99522 8.95312 1.54423 9.35449 1.2002L9.69238 0.929688C10.0312 0.677023 10.3719 0.480591 10.7148 0.348633L10.7266 0.34375C11.1734 0.184171 11.5911 0.0817376 11.9746 0.046875L12.416 0.0126953C12.5439 0.00471302 12.6521 1.26131e-05 12.7393 0ZM12.875 2.08008C12.4911 2.08008 12.106 2.12135 11.7197 2.2041C11.3724 2.27853 11.0692 2.39892 10.8047 2.55957C10.6898 2.67918 10.5695 2.82365 10.4463 2.99609L10.4355 3.01074L10.4238 3.02539C10.3358 3.131 10.2412 3.31161 10.1621 3.60156C10.1022 3.86952 10.042 4.11173 9.98047 4.32715C9.93734 4.47809 9.86381 4.64596 9.72949 4.78027C9.58218 4.9275 9.39059 5.00488 9.18457 5.00488C9.04799 5.00488 8.91402 4.99667 8.79395 4.97266C8.68958 4.95177 8.51705 4.90474 8.38086 4.76855L8.3457 4.7334L8.32422 4.70117C8.32317 4.70036 8.32189 4.69937 8.32031 4.69824L8.23438 4.6543C8.1865 4.63515 8.12496 4.61621 8.04883 4.59863L7.77246 4.55078C7.55727 4.52389 7.30828 4.50977 7.02441 4.50977C6.20351 4.50982 5.58508 4.79565 5.11816 5.3584C4.64955 5.95955 4.41999 6.62987 4.41992 7.38477V7.7041C4.44031 7.81383 4.45221 7.92001 4.45801 8.01855C4.49532 8.16103 4.50975 8.31404 4.50977 8.46484V9.21289L4.45703 9.31836L4.41211 9.40918L4.39746 9.43652L4.38086 9.46289C4.24957 9.65971 4.05939 9.7783 3.85156 9.83789L3.85254 9.83984L3.55371 9.93945L3.52246 9.94531C3.37656 9.9745 3.27304 9.9986 3.20703 10.0166C3.20325 10.0176 3.19966 10.0186 3.19629 10.0195C2.74946 10.3957 2.45945 10.7483 2.29688 11.0732L2.29395 11.0801L2.29004 11.0869C2.13652 11.372 2.03423 11.8315 2.03418 12.5146C2.03418 13.0089 2.20315 13.3539 2.52246 13.6094H2.52148C2.87023 13.8706 3.19229 14.0969 3.4873 14.29L3.77637 14.4746L3.7793 14.4766L4.10742 14.6865C4.19777 14.7468 4.27573 14.8025 4.3418 14.8516C4.59686 15.0157 4.7793 15.2761 4.7793 15.6201C4.7793 15.8143 4.74217 16.0032 4.66504 16.1816C4.62826 16.3166 4.57407 16.4449 4.50195 16.5645C4.44841 16.6718 4.41997 16.7893 4.41992 16.9248C4.41992 17.3731 4.49822 17.8076 4.65625 18.2305C4.81568 18.6273 5.0265 18.9813 5.28711 19.2959C5.57338 19.6061 5.91185 19.8674 6.30664 20.0791C6.68077 20.2509 7.09758 20.3398 7.56445 20.3398C7.55462 20.3399 7.55663 20.3416 7.57324 20.3369C7.5902 20.3321 7.6179 20.3219 7.65625 20.3027L7.6748 20.2939L7.69434 20.2861C7.84419 20.2262 7.9937 20.1654 8.14355 20.1055C8.26808 20.0446 8.40308 19.9841 8.54883 19.9258L8.57617 19.916C8.79423 19.8433 9.01373 19.7998 9.22949 19.7998C9.63761 19.7998 9.99128 19.9651 10.2393 20.29L10.3838 20.4707C10.5201 20.6544 10.6286 20.8448 10.6943 21.042L10.709 21.0879C11.0535 21.3344 11.4684 21.5457 11.96 21.7178H11.959C12.5468 21.9131 13.0759 22.0049 13.5498 22.0049C14.0814 22.0049 14.5436 21.8996 14.9463 21.6982L14.957 21.6924L15.3232 21.5117C15.689 21.3235 16.0557 21.1101 16.4238 20.8721C16.5461 20.7902 16.5841 20.7281 16.5957 20.6992C16.6496 20.5644 16.6868 20.451 16.71 20.3584L16.7178 20.3262L16.7305 20.2939C16.7976 20.1261 16.873 19.9718 16.959 19.8428C17.0275 19.727 17.1224 19.6237 17.25 19.5508C17.3941 19.4684 17.5482 19.4405 17.6895 19.4404L17.9707 19.4531C18.0671 19.4619 18.1657 19.4754 18.2666 19.4922L18.5312 19.5195C18.6369 19.5261 18.7608 19.5303 18.9043 19.5303C19.3084 19.5303 19.651 19.4138 19.9502 19.1836L20.0332 19.1104C20.2195 18.9261 20.3398 18.6424 20.3398 18.1855C20.3398 18.049 20.3108 17.9052 20.2451 17.752L20.2295 17.7148L20.2197 17.6768C20.1625 17.4478 20.1125 17.309 20.0771 17.2383L20.0732 17.2305L20.0693 17.2217C19.9833 17.0324 19.9122 16.8206 19.9121 16.6104C19.9121 16.3775 20.0046 16.1257 20.2471 15.9697V15.9688C20.4594 15.8272 20.7425 15.6802 21.083 15.5254L21.0889 15.5225L21.4375 15.3633C21.7834 15.1983 22.1387 15.0082 22.5039 14.7939C22.8493 14.5699 23.0399 14.2321 23.04 13.6855C23.04 13.2018 22.8633 12.8127 22.4902 12.4863L22.4844 12.4814L22.4785 12.4756C22.0424 12.0685 21.6251 11.7233 21.2266 11.4385C20.9872 11.2881 20.7822 11.1476 20.6172 11.0156C20.5221 10.9395 20.4283 10.8504 20.3545 10.7471C20.2817 10.6452 20.2052 10.4959 20.2051 10.3105C20.2051 9.97435 20.3432 9.61454 20.5361 9.26074L20.5371 9.25684L20.7363 8.87012C20.7994 8.73705 20.8587 8.59975 20.915 8.45898L20.9199 8.44824L20.9248 8.43848C21.0482 8.16705 21.1045 7.90708 21.1045 7.65527C21.1045 6.99652 20.9666 6.56524 20.7588 6.29492L20.7451 6.27832L20.7344 6.26074C20.5098 5.91144 20.2309 5.65945 19.8965 5.49219C19.5334 5.31063 19.1623 5.20899 18.7812 5.18359L18.7646 5.18262L18.749 5.18066C18.3156 5.12287 17.9327 5.09473 17.5996 5.09473C17.2554 5.09472 16.9528 5.07235 16.7139 5.0127C16.5193 4.96406 16.1711 4.84321 16.0488 4.49219V4.49316L15.8242 3.86328L15.8203 3.85352C15.6967 3.48276 15.5066 3.20551 15.2578 3.00195L15.249 2.99512L15.2402 2.98633C14.9808 2.75287 14.6985 2.57378 14.3926 2.44629L14.3682 2.43652L14.3457 2.42383C14.0678 2.27225 13.803 2.19105 13.5498 2.16797L13.5273 2.16602L13.5049 2.16211C13.178 2.10268 12.9764 2.08013 12.875 2.08008ZM12.7393 12.375C13.1016 12.375 13.4612 12.4634 13.7344 12.7158L13.8203 12.792C14.0163 12.9783 14.1845 13.2303 14.1846 13.5498C14.1846 13.7939 14.1123 14.022 13.9932 14.2295C13.9127 14.4056 13.7897 14.5433 13.6445 14.6494V15.0801C13.6445 15.5414 13.6987 15.9515 13.7998 16.3145C13.8304 16.3837 13.8752 16.4322 13.9492 16.4707C14.039 16.5173 14.1887 16.556 14.4258 16.5586C14.4304 16.5564 14.4374 16.5544 14.4453 16.5498C14.4862 16.526 14.5495 16.4778 14.6357 16.3916C14.6671 16.3602 14.7075 16.3128 14.7539 16.2432L14.7812 16.2012L14.8164 16.167C14.9938 15.9896 15.2232 15.8848 15.4844 15.8848L15.5811 15.8887C15.681 15.8955 15.7904 15.9139 15.8955 15.959C16.0308 16.017 16.166 16.1231 16.2441 16.2881L16.2744 16.3623L16.3086 16.4932C16.3364 16.6296 16.3447 16.7788 16.3447 16.9248C16.3447 17.3021 16.1992 17.6398 15.9541 17.9258L15.9414 17.9404L15.9277 17.9541C15.759 18.1227 15.5361 18.2296 15.3105 18.3018C15.0795 18.3756 14.8069 18.4249 14.502 18.457L14.4756 18.46H14.4492C14.1556 18.4599 13.8642 18.4203 13.5762 18.3418L13.2891 18.25C13.0218 18.1528 12.7789 18.0149 12.5605 17.8398C12.4688 17.8922 12.3708 17.943 12.2666 17.9902L11.9746 18.1113C11.5272 18.2834 11.061 18.3701 10.5801 18.3701C10.2028 18.3701 9.86509 18.2246 9.5791 17.9795L9.5498 17.9551L9.52539 17.9258C9.25332 17.6084 9.13477 17.2152 9.13477 16.79C9.13477 16.6436 9.15909 16.5004 9.20508 16.3623L9.23535 16.2881C9.31351 16.1231 9.44868 16.017 9.58398 15.959C9.72414 15.899 9.87212 15.8848 9.99512 15.8848L10.1523 15.8994C10.2818 15.9235 10.4041 15.9785 10.5107 16.0654L10.5732 16.1211L10.7334 16.2822C10.7636 16.2781 10.8016 16.2733 10.8477 16.2646C10.9495 16.2455 11.0812 16.2155 11.2451 16.1748C11.3142 16.1513 11.3695 16.1304 11.4121 16.1104C11.4186 16.1073 11.424 16.1024 11.4297 16.0996V14.5283C11.4063 14.5012 11.3807 14.4725 11.3516 14.4434L11.3262 14.4189L11.3047 14.3896C11.15 14.1833 11.0694 13.9435 11.0693 13.6855C11.0693 13.2673 11.209 12.8159 11.6611 12.6074L11.7842 12.5518C12.0761 12.4298 12.398 12.375 12.7393 12.375ZM15.3496 9.54004C15.6078 9.54004 15.8481 9.62048 16.0547 9.77539H16.0537C16.3741 9.99115 16.4795 10.3417 16.4795 10.6699C16.4795 10.9194 16.4054 11.1619 16.292 11.3887L16.2832 11.4062L16.2734 11.4229C16.0609 11.7767 15.6921 11.8896 15.3496 11.8896C15.0386 11.8896 14.7124 11.8276 14.458 11.6182C14.1852 11.3934 14.085 11.0751 14.085 10.7598C14.085 10.4348 14.1729 10.1018 14.4336 9.85645C14.6886 9.61639 15.0248 9.54005 15.3496 9.54004ZM9.36426 9.27051C9.65808 9.27051 9.9718 9.33839 10.2119 9.5625C10.4584 9.79266 10.54 10.1042 10.54 10.4004C10.54 10.718 10.471 11.0497 10.2461 11.3047C10.0105 11.5717 9.6837 11.665 9.36426 11.665C9.17959 11.665 9.00582 11.6531 8.85059 11.6221C8.70001 11.592 8.53261 11.5369 8.38965 11.4297L8.33203 11.3877L8.29004 11.3301C8.09636 11.0718 8.05471 10.718 8.05469 10.4004C8.05469 10.1328 8.09781 9.79003 8.33594 9.55176L8.36133 9.52637L8.38965 9.50488C8.53258 9.39772 8.70004 9.34358 8.85059 9.31348C9.00584 9.28245 9.17957 9.27053 9.36426 9.27051Z" fill="#FDA96F"/>
</svg>
