<svg width="25" height="24" viewBox="0 0 25 24" fill="none" xmlns="http://www.w3.org/2000/svg">
<path d="M13.2463 24C12.4067 24 11.6138 23.7973 10.8675 23.3918C10.1524 22.9552 9.48383 22.4717 8.86194 21.9415C8.61318 21.9415 8.36443 21.9883 8.11567 22.0819C7.89801 22.1442 7.63371 22.1754 7.32276 22.1754C6.60759 22.1754 5.9546 22.0351 5.36381 21.7544C4.77301 21.4737 4.25995 21.0994 3.82463 20.6316C3.3893 20.1326 3.04726 19.5711 2.79851 18.9474C2.54975 18.3236 2.42537 17.653 2.42537 16.9357C2.42537 16.7797 2.44092 16.6394 2.47201 16.5146C2.50311 16.3899 2.5342 16.2495 2.5653 16.0936C1.81903 15.8129 1.19714 15.345 0.699627 14.6901C0.233209 14.0351 0 13.3021 0 12.4912C0 11.5244 0.202114 10.6823 0.606343 9.96491C1.01057 9.21637 1.61692 8.67057 2.42537 8.32749C2.23881 7.29825 2.28545 6.39376 2.5653 5.61404C2.84515 4.80312 3.28047 4.14815 3.87127 3.64912C4.46206 3.1501 5.14614 2.82261 5.92351 2.66667C6.73197 2.47953 7.54042 2.49513 8.34888 2.71345C8.69092 2.02729 9.0796 1.49708 9.51493 1.12281C9.95025 0.748539 10.37 0.483433 10.7743 0.327487C11.2096 0.171542 11.5983 0.0779742 11.9403 0.0467837C12.2823 0.015595 12.5311 0 12.6866 0C14.2102 0 15.3451 0.327487 16.0914 0.982459C16.8377 1.60624 17.3663 2.30799 17.6772 3.08772C18.3613 3.08772 19.0143 3.1501 19.6362 3.27485C20.2892 3.39961 20.8644 3.61794 21.3619 3.92983C21.8595 4.24172 22.2481 4.67836 22.528 5.23977C22.8389 5.76998 22.9944 6.45614 22.9944 7.29825C22.9944 7.57895 22.9633 7.84405 22.9011 8.09357C22.8389 8.31189 22.7767 8.53022 22.7146 8.74854C22.6524 8.96686 22.5902 9.16959 22.528 9.35673C22.4658 9.54386 22.4347 9.731 22.4347 9.91813C22.4347 9.98051 22.4969 10.0585 22.6213 10.1521C22.7456 10.2456 22.8856 10.3704 23.041 10.5263C23.4453 10.8694 23.865 11.306 24.3004 11.8363C24.7668 12.3665 25 12.9903 25 13.7076C25 14.2066 24.9067 14.6433 24.7201 15.0175C24.5647 15.3606 24.347 15.6725 24.0672 15.9532C23.8184 16.2027 23.5075 16.4366 23.1343 16.655C22.7923 16.8421 22.4347 17.0292 22.0616 17.2164C22.2481 17.6842 22.3414 18.1209 22.3414 18.5263C22.3414 19.0253 22.2326 19.4776 22.0149 19.883C21.8284 20.2885 21.5485 20.616 21.1754 20.8655C20.8333 21.115 20.4136 21.3021 19.916 21.4269C19.4496 21.5205 18.9521 21.5205 18.4235 21.4269C17.6772 22.3002 16.9154 22.9552 16.1381 23.3918C15.3607 23.7973 14.3968 24 13.2463 24ZM9.04851 20.5848C9.32836 20.5848 9.54602 20.694 9.70149 20.9123C9.88806 21.1306 10.0124 21.3333 10.0746 21.5205C10.0746 21.5517 10.0746 21.5828 10.0746 21.614C10.1057 21.6452 10.1213 21.6764 10.1213 21.7076C10.5566 22.0507 11.0852 22.3314 11.7071 22.5497C12.3601 22.768 12.9664 22.8772 13.5261 22.8772C14.148 22.8772 14.7077 22.7524 15.2052 22.5029C15.7338 22.2534 16.2624 21.9571 16.791 21.614C16.9776 21.4893 17.102 21.3489 17.1642 21.193C17.2264 21.037 17.273 20.8967 17.3041 20.7719C17.3663 20.616 17.4285 20.4912 17.4907 20.3977C17.5529 20.2729 17.6617 20.2105 17.8172 20.2105C17.9726 20.2105 18.1437 20.2261 18.3302 20.2573C18.5168 20.2885 18.7655 20.3041 19.0765 20.3041C19.6051 20.3041 20.0715 20.1481 20.4757 19.8363C20.88 19.5244 21.0821 19.0409 21.0821 18.386C21.0821 18.1676 21.0354 17.9493 20.9422 17.731C20.88 17.4815 20.8178 17.2943 20.7556 17.1696C20.6001 16.8265 20.6001 16.6082 20.7556 16.5146C20.9422 16.3899 21.2065 16.2495 21.5485 16.0936C22.046 15.8752 22.5591 15.6101 23.0877 15.2982C23.6163 14.9552 23.8806 14.4249 23.8806 13.7076C23.8806 13.0526 23.6318 12.5068 23.1343 12.0702C22.6679 11.6335 22.217 11.2593 21.7817 10.9474C21.533 10.7914 21.3308 10.6511 21.1754 10.5263C21.0199 10.4016 20.9422 10.2924 20.9422 10.1988C20.9422 9.98051 21.0354 9.69981 21.222 9.35673C21.3775 9.07602 21.5174 8.77973 21.6418 8.46784C21.7973 8.12476 21.875 7.78168 21.875 7.4386C21.875 6.69006 21.7195 6.11306 21.4086 5.7076C21.1287 5.27096 20.7711 4.94347 20.3358 4.72515C19.9005 4.50682 19.4496 4.38207 18.9832 4.35088C18.5168 4.2885 18.097 4.25731 17.7239 4.25731C17.0398 4.25731 16.6667 4.16374 16.6045 3.97661L16.3713 3.32164C16.2158 2.8538 15.967 2.47953 15.625 2.19883C15.3141 1.91813 14.972 1.69981 14.5989 1.54386C14.2568 1.35673 13.9148 1.24756 13.5728 1.21638C13.2307 1.154 12.982 1.12281 12.8265 1.12281C12.3912 1.12281 11.9558 1.16959 11.5205 1.26316C11.0852 1.35673 10.6965 1.51267 10.3545 1.73099C10.199 1.88694 10.0435 2.07408 9.88806 2.2924C9.73259 2.47953 9.60821 2.74464 9.51493 3.08772C9.45274 3.36842 9.39055 3.61793 9.32836 3.83626C9.26617 4.05458 9.15734 4.16374 9.00187 4.16374C8.75311 4.16374 8.59764 4.13256 8.53545 4.07018C8.47326 3.97661 8.36443 3.89864 8.20895 3.83626C8.05348 3.77388 7.85137 3.7271 7.60261 3.69591C7.35386 3.66472 7.07401 3.64912 6.76306 3.64912C5.76803 3.64912 4.97512 4.0078 4.38433 4.72515C3.82463 5.4425 3.54478 6.25341 3.54478 7.1579C3.54478 7.25146 3.54478 7.37622 3.54478 7.53216C3.57587 7.68811 3.59142 7.81287 3.59142 7.90643C3.62251 8 3.63806 8.12476 3.63806 8.2807C3.63806 8.40546 3.63806 8.49903 3.63806 8.56141V8.93567L3.59142 9.02924C3.52923 9.12281 3.43595 9.18519 3.31157 9.21637C3.21828 9.24756 3.125 9.27875 3.03172 9.30994C2.72077 9.37232 2.54975 9.4191 2.51866 9.45029C1.99005 9.88694 1.61692 10.3236 1.39925 10.7602C1.18159 11.1657 1.07276 11.7427 1.07276 12.4912C1.07276 13.1462 1.30597 13.6608 1.77239 14.0351C2.2699 14.4094 2.72077 14.7212 3.125 14.9708C3.37376 15.1267 3.56032 15.2515 3.6847 15.345C3.84017 15.4386 3.91791 15.5634 3.91791 15.7193C3.91791 15.8752 3.88682 16.0156 3.82463 16.1404C3.79353 16.2651 3.74689 16.3743 3.6847 16.4678C3.59142 16.655 3.54478 16.8577 3.54478 17.076C3.54478 17.6062 3.63806 18.1209 3.82463 18.6199C4.01119 19.0877 4.25995 19.5088 4.5709 19.883C4.91294 20.2573 5.31716 20.5692 5.78358 20.8187C6.25 21.037 6.76306 21.1462 7.32276 21.1462C7.41605 21.1462 7.52488 21.115 7.64925 21.0526C7.80473 20.9903 7.9602 20.9279 8.11567 20.8655C8.24005 20.8031 8.37998 20.7407 8.53545 20.6784C8.72202 20.616 8.89304 20.5848 9.04851 20.5848ZM12.5466 17.3567C12.3912 17.5127 12.1113 17.6686 11.7071 17.8246C11.3029 17.9805 10.8831 18.0585 10.4478 18.0585C10.199 18.0585 9.9658 17.9649 9.74813 17.7778C9.56157 17.5595 9.46828 17.2788 9.46828 16.9357C9.46828 16.8421 9.48383 16.7485 9.51493 16.655C9.54602 16.5614 9.65485 16.5146 9.84142 16.5146C9.9347 16.5146 10.0124 16.5458 10.0746 16.6082C10.1368 16.6706 10.199 16.7329 10.2612 16.7953C10.2923 16.8889 10.3856 16.9357 10.541 16.9357C10.6654 16.9357 10.9142 16.8889 11.2873 16.7953C11.6604 16.6706 11.847 16.5302 11.847 16.3743V14.4094C11.7848 14.3158 11.7071 14.2222 11.6138 14.1287C11.5205 14.0039 11.4739 13.8635 11.4739 13.7076C11.4739 13.3645 11.5827 13.1462 11.8004 13.0526C12.0491 12.9279 12.3445 12.8655 12.6866 12.8655C12.9975 12.8655 13.2307 12.9435 13.3862 13.0994C13.5728 13.2554 13.666 13.4113 13.666 13.5673C13.666 13.7232 13.6194 13.8791 13.5261 14.0351C13.4639 14.191 13.324 14.3158 13.1063 14.4094V15.1579C13.1063 15.6881 13.1685 16.1715 13.2929 16.6082C13.4484 17.0136 13.8371 17.2164 14.459 17.2164C14.6144 17.2164 14.801 17.1072 15.0187 16.8889C15.0808 16.8265 15.143 16.7485 15.2052 16.655C15.2985 16.5614 15.4073 16.5146 15.5317 16.5146C15.7183 16.5146 15.8271 16.5614 15.8582 16.655C15.8893 16.7485 15.9049 16.8889 15.9049 17.076C15.9049 17.3255 15.8116 17.5595 15.625 17.7778C15.4384 17.9649 15.0498 18.0897 14.459 18.152C14.1169 18.152 13.7749 18.0897 13.4328 17.9649C13.0908 17.8402 12.7954 17.6374 12.5466 17.3567ZM8.34888 10.2924C8.34888 10.0429 8.39552 9.87134 8.48881 9.77778C8.61318 9.68421 8.84639 9.63743 9.18843 9.63743C9.65485 9.63743 9.88806 9.85575 9.88806 10.2924C9.88806 10.8226 9.65485 11.0877 9.18843 11.0877C8.84639 11.0877 8.61318 11.0409 8.48881 10.9474C8.39552 10.8226 8.34888 10.6043 8.34888 10.2924ZM14.5989 10.6667C14.5989 10.1676 14.8632 9.91813 15.3918 9.91813C15.5473 9.91813 15.6872 9.96491 15.8116 10.0585C15.967 10.152 16.0448 10.3236 16.0448 10.5731C16.0448 10.729 15.9981 10.9006 15.9049 11.0877C15.8116 11.2437 15.6405 11.3216 15.3918 11.3216C14.8632 11.3216 14.5989 11.1033 14.5989 10.6667Z" fill="#FDA96F"/>
</svg>
