<svg width="234" height="31" viewBox="0 0 234 31" fill="none" xmlns="http://www.w3.org/2000/svg">
<path d="M212.535 29.9998C211.202 29.9998 210.188 29.5865 209.495 28.7598C208.802 27.9331 208.455 26.8265 208.455 25.4398V6.67981C208.455 5.29314 208.708 4.17314 209.215 3.3198C209.748 2.4398 210.428 1.7998 211.255 1.3998C212.108 0.999804 213.028 0.799805 214.015 0.799805C215.482 0.799805 216.722 1.18647 217.735 1.9598C218.748 2.73314 219.535 4.09314 220.095 6.0398L224.415 20.7998H225.055V5.4398C225.055 4.02647 225.415 2.9198 226.135 2.1198C226.855 1.29314 227.882 0.879804 229.215 0.879804C230.602 0.879804 231.628 1.29314 232.295 2.1198C232.988 2.9198 233.335 4.02647 233.335 5.4398V23.5198C233.335 25.7598 232.842 27.4131 231.855 28.4798C230.868 29.5465 229.482 30.0798 227.695 30.0798C225.882 30.0798 224.468 29.5998 223.455 28.6398C222.442 27.6798 221.668 26.2665 221.135 24.3998L218.295 14.6798C218.242 14.4131 218.135 14.1731 217.975 13.9598C217.842 13.7198 217.655 13.5998 217.415 13.5998C217.122 13.5998 216.922 13.7198 216.815 13.9598C216.708 14.1731 216.655 14.4131 216.655 14.6798V25.4398C216.655 26.8265 216.308 27.9331 215.615 28.7598C214.922 29.5865 213.895 29.9998 212.535 29.9998Z" fill="white"/>
<path d="M202.232 29.9999C200.899 29.9999 199.845 29.5999 199.072 28.7999C198.299 27.9732 197.885 26.9066 197.832 25.5999C197.725 23.3332 197.152 21.7332 196.112 20.7999C195.099 19.8399 193.739 19.3599 192.032 19.3599H191.232V25.7599C191.232 27.1466 190.859 28.1999 190.112 28.9199C189.365 29.6399 188.379 29.9999 187.152 29.9999C185.845 29.9999 184.819 29.6399 184.072 28.9199C183.325 28.1999 182.952 27.1466 182.952 25.7599V20.1199C182.952 17.2932 183.365 15.1465 184.192 13.6799C185.045 12.2132 186.125 11.1599 187.432 10.5199L187.232 9.75988H186.592C185.365 9.75988 184.392 9.37322 183.672 8.59988C182.979 7.79988 182.605 6.71988 182.552 5.35988C182.525 4.02655 182.885 2.94655 183.632 2.11988C184.379 1.29322 185.365 0.879883 186.592 0.879883H196.792C199.645 0.879883 201.952 1.57322 203.712 2.95988C205.472 4.34655 206.352 6.55988 206.352 9.59988C206.352 11.1732 206.085 12.4932 205.552 13.5599C205.019 14.5999 204.339 15.3999 203.512 15.9599C202.685 16.5199 201.819 16.8532 200.912 16.9599V17.4799C202.565 17.8799 203.925 18.7599 204.992 20.1199C206.085 21.4799 206.632 23.3066 206.632 25.5999C206.632 27.0666 206.232 28.1732 205.432 28.9199C204.659 29.6399 203.592 29.9999 202.232 29.9999ZM191.032 13.2399C191.032 13.8265 191.139 14.2132 191.352 14.3999C191.565 14.5866 191.965 14.6799 192.552 14.6799H196.312C197.432 14.6799 198.245 14.4266 198.752 13.9199C199.259 13.4132 199.512 12.7065 199.512 11.7999C199.512 10.8666 199.259 10.1466 198.752 9.63988C198.245 9.13322 197.432 8.87989 196.312 8.87989H192.552C191.965 8.87989 191.565 8.95988 191.352 9.11988C191.139 9.27988 191.032 9.66655 191.032 10.2799V13.2399Z" fill="white"/>
<path d="M158.024 30.0002C156.238 29.7335 155.078 28.9202 154.544 27.5602C154.011 26.1735 154.118 24.4268 154.864 22.3202L160.144 7.32018C160.624 5.93351 161.171 4.74684 161.784 3.76018C162.424 2.77351 163.211 2.01351 164.144 1.48018C165.104 0.946842 166.291 0.680176 167.704 0.680176C169.838 0.680176 171.438 1.26684 172.504 2.44018C173.598 3.61351 174.504 5.24018 175.224 7.32018L180.464 22.3202C181.211 24.4268 181.344 26.1735 180.864 27.5602C180.411 28.9202 179.278 29.7335 177.464 30.0002C175.998 30.1868 174.718 30.0135 173.624 29.4802C172.558 28.9468 171.918 28.0802 171.704 26.8802C171.544 26.0802 171.518 25.4135 171.624 24.8802C171.758 24.3468 171.878 23.9202 171.984 23.6002C172.064 23.3335 172.064 23.0802 171.984 22.8402C171.931 22.5735 171.731 22.4402 171.384 22.4402H163.944C163.598 22.4402 163.384 22.5735 163.304 22.8402C163.251 23.0802 163.278 23.3335 163.384 23.6002C163.491 23.9202 163.598 24.3468 163.704 24.8802C163.811 25.4135 163.798 26.0802 163.664 26.8802C163.451 28.0802 162.824 28.9468 161.784 29.4802C160.744 30.0135 159.491 30.1868 158.024 30.0002ZM170.624 16.8402L168.544 10.3202C168.491 10.0535 168.398 9.85351 168.264 9.72018C168.158 9.56018 167.971 9.48018 167.704 9.48018C167.438 9.48018 167.238 9.56018 167.104 9.72018C166.998 9.85351 166.904 10.0535 166.824 10.3202L164.784 16.8402H170.624Z" fill="white"/>
<path d="M139.973 29.92C138.666 29.92 137.413 29.8 136.213 29.56C135.04 29.32 134 28.8666 133.093 28.2C132.213 27.5066 131.506 26.52 130.973 25.24C130.466 23.9333 130.213 22.2266 130.213 20.12C130.213 18.2266 130.466 16.6 130.973 15.24C131.48 13.88 132.08 12.8 132.773 12C133.493 11.2 134.146 10.7066 134.733 10.52L134.533 9.75996H133.853C132.626 9.75996 131.653 9.37329 130.933 8.59996C130.24 7.79996 129.88 6.71996 129.853 5.35996C129.826 4.02663 130.173 2.95996 130.893 2.15996C131.64 1.35996 132.626 0.959961 133.853 0.959961H148.213C151.066 0.959961 152.493 2.2933 152.493 4.95996C152.493 6.15996 152.146 7.11996 151.453 7.83996C150.76 8.55996 149.68 8.91996 148.213 8.91996H139.933C138.946 8.91996 138.453 9.4933 138.453 10.64V13.64C139.786 13.3466 141.173 13 142.613 12.6C144.08 12.2 145.466 12 146.773 12C148.026 12 148.96 12.28 149.573 12.84C150.213 13.3733 150.533 14.1066 150.533 15.04C150.533 16 150.213 16.76 149.573 17.32C148.96 17.8533 148.026 18.1333 146.773 18.16C145.466 18.1866 144.08 18 142.613 17.6C141.146 17.2 139.746 16.8533 138.413 16.56V21.8C138.413 22.3066 138.546 22.6666 138.813 22.88C139.106 23.0666 139.56 22.9866 140.173 22.64C141.506 21.8666 142.813 21.2533 144.093 20.8C145.373 20.32 146.626 20.08 147.853 20.08C149.586 20.08 150.893 20.5333 151.773 21.44C152.68 22.3466 153.133 23.5333 153.133 25C153.133 26.5733 152.653 27.7866 151.693 28.64C150.76 29.4933 149.24 29.92 147.133 29.92H139.973Z" fill="white"/>
<path d="M102.566 8.59996C101.793 6.94663 101.619 5.46663 102.046 4.15996C102.473 2.82663 103.286 1.89329 104.486 1.35996C105.713 0.826627 106.953 0.826627 108.206 1.35996C109.486 1.86663 110.419 2.94663 111.006 4.59996C111.299 5.42663 111.513 6.38663 111.646 7.47996C111.779 8.54663 111.926 9.58663 112.086 10.6C112.273 11.5866 112.566 12.4133 112.966 13.08C113.393 13.72 114.046 14.04 114.926 14.04C115.806 14.04 116.459 13.72 116.886 13.08C117.313 12.4133 117.606 11.5866 117.766 10.6C117.953 9.58663 118.099 8.54663 118.206 7.47996C118.339 6.38663 118.553 5.42663 118.846 4.59996C119.459 2.94663 120.393 1.86663 121.646 1.35996C122.899 0.826627 124.139 0.826627 125.366 1.35996C126.566 1.89329 127.379 2.82663 127.806 4.15996C128.233 5.46663 128.059 6.94663 127.286 8.59996C126.886 9.4533 126.353 10.2666 125.686 11.04C125.046 11.7866 124.339 12.56 123.566 13.36C122.793 14.16 122.019 15.0533 121.246 16.04C120.473 17 119.766 18.1066 119.126 19.36V26.2C119.126 27.2933 118.726 28.2 117.926 28.92C117.126 29.64 116.126 30 114.926 30C113.753 30 112.753 29.64 111.926 28.92C111.126 28.2 110.726 27.2933 110.726 26.2V19.36C110.113 18.1066 109.419 17 108.646 16.04C107.873 15.0533 107.099 14.16 106.326 13.36C105.553 12.56 104.833 11.7866 104.166 11.04C103.499 10.2666 102.966 9.4533 102.566 8.59996Z" fill="white"/>
<path d="M87.3949 29.92C86.0882 29.92 84.8349 29.8 83.6349 29.56C82.4615 29.32 81.4215 28.8666 80.5149 28.2C79.6349 27.5066 78.9282 26.52 78.3949 25.24C77.8882 23.9333 77.6349 22.2266 77.6349 20.12C77.6349 18.2266 77.8882 16.6 78.3949 15.24C78.9015 13.88 79.5015 12.8 80.1949 12C80.9149 11.2 81.5682 10.7066 82.1549 10.52L81.9549 9.75996H81.2749C80.0482 9.75996 79.0749 9.37329 78.3549 8.59996C77.6615 7.79996 77.3015 6.71996 77.2749 5.35996C77.2482 4.02663 77.5949 2.95996 78.3149 2.15996C79.0615 1.35996 80.0482 0.959961 81.2749 0.959961H95.6349C98.4882 0.959961 99.9149 2.2933 99.9149 4.95996C99.9149 6.15996 99.5682 7.11996 98.8749 7.83996C98.1815 8.55996 97.1015 8.91996 95.6349 8.91996H87.3549C86.3682 8.91996 85.8749 9.4933 85.8749 10.64V13.64C87.2082 13.3466 88.5949 13 90.0349 12.6C91.5015 12.2 92.8882 12 94.1949 12C95.4482 12 96.3815 12.28 96.9949 12.84C97.6349 13.3733 97.9549 14.1066 97.9549 15.04C97.9549 16 97.6349 16.76 96.9949 17.32C96.3815 17.8533 95.4482 18.1333 94.1949 18.16C92.8882 18.1866 91.5015 18 90.0349 17.6C88.5682 17.2 87.1682 16.8533 85.8349 16.56V21.8C85.8349 22.3066 85.9682 22.6666 86.2349 22.88C86.5282 23.0666 86.9815 22.9866 87.5949 22.64C88.9282 21.8666 90.2349 21.2533 91.5149 20.8C92.7949 20.32 94.0482 20.08 95.2749 20.08C97.0082 20.08 98.3149 20.5333 99.1949 21.44C100.102 22.3466 100.555 23.5333 100.555 25C100.555 26.5733 100.075 27.7866 99.1149 28.64C98.1815 29.4933 96.6615 29.92 94.5549 29.92H87.3949Z" fill="white"/>
<path d="M63.1501 30.1201C61.3634 30.1201 59.8834 29.7735 58.7101 29.0801C57.5634 28.3868 56.6167 27.3868 55.8701 26.0801C55.1501 24.7735 54.4967 23.1868 53.9101 21.3201L49.4301 6.96012C49.0034 5.62679 49.0301 4.46678 49.5101 3.48012C50.0167 2.46678 50.9101 1.77345 52.1901 1.40012C53.3634 1.05345 54.4301 1.13345 55.3901 1.64012C56.3501 2.12012 57.0034 2.94678 57.3501 4.12012L61.7101 17.9601C62.1634 19.4535 62.7368 20.4535 63.4301 20.9601C64.1501 21.4401 64.9234 21.5468 65.7501 21.2801C66.6034 21.0401 67.1501 20.5601 67.3901 19.8401C67.6301 19.0935 67.5634 17.9735 67.1901 16.4801C66.5767 13.8135 66.1634 11.7201 65.9501 10.2001C65.7368 8.68012 65.6301 7.48012 65.6301 6.60012C65.6301 5.10679 66.0301 3.82679 66.8301 2.76012C67.6567 1.66678 68.9234 1.12012 70.6301 1.12012C72.3101 1.12012 73.5234 1.66678 74.2701 2.76012C75.0434 3.82679 75.4301 5.10679 75.4301 6.60012C75.4301 7.48012 75.3101 8.38679 75.0701 9.32012C74.8301 10.2535 74.5501 11.2135 74.2301 12.2001L70.6701 22.9601C70.1901 24.4001 69.6568 25.6668 69.0701 26.7601C68.5101 27.8268 67.7634 28.6535 66.8301 29.2401C65.9234 29.8268 64.6967 30.1201 63.1501 30.1201Z" fill="white"/>
<path d="M29.2743 30.0002C27.4876 29.7335 26.3276 28.9202 25.7943 27.5602C25.2609 26.1735 25.3676 24.4268 26.1143 22.3202L31.3943 7.32018C31.8743 5.93351 32.4209 4.74684 33.0343 3.76018C33.6743 2.77351 34.4609 2.01351 35.3943 1.48018C36.3543 0.946842 37.5409 0.680176 38.9543 0.680176C41.0876 0.680176 42.6876 1.26684 43.7543 2.44018C44.8476 3.61351 45.7543 5.24018 46.4743 7.32018L51.7143 22.3202C52.4609 24.4268 52.5943 26.1735 52.1143 27.5602C51.6609 28.9202 50.5276 29.7335 48.7143 30.0002C47.2476 30.1868 45.9676 30.0135 44.8743 29.4802C43.8076 28.9468 43.1676 28.0802 42.9543 26.8802C42.7943 26.0802 42.7676 25.4135 42.8743 24.8802C43.0076 24.3468 43.1276 23.9202 43.2343 23.6002C43.3143 23.3335 43.3143 23.0802 43.2343 22.8402C43.1809 22.5735 42.9809 22.4402 42.6343 22.4402H35.1943C34.8476 22.4402 34.6343 22.5735 34.5543 22.8402C34.5009 23.0802 34.5276 23.3335 34.6343 23.6002C34.7409 23.9202 34.8476 24.3468 34.9543 24.8802C35.0609 25.4135 35.0476 26.0802 34.9143 26.8802C34.7009 28.0802 34.0743 28.9468 33.0343 29.4802C31.9943 30.0135 30.7409 30.1868 29.2743 30.0002ZM41.8743 16.8402L39.7943 10.3202C39.7409 10.0535 39.6476 9.85351 39.5143 9.72018C39.4076 9.56018 39.2209 9.48018 38.9543 9.48018C38.6876 9.48018 38.4876 9.56018 38.3543 9.72018C38.2476 9.85351 38.1543 10.0535 38.0743 10.3202L36.0343 16.8402H41.8743Z" fill="white"/>
<path d="M13.003 30.1202C11.5097 30.1202 10.003 29.9735 8.48305 29.6802C6.98971 29.3602 5.60305 28.9068 4.32305 28.3202C3.06971 27.7068 2.05638 26.9735 1.28305 26.1202C0.509714 25.2402 0.123047 24.2268 0.123047 23.0802C0.123047 21.6135 0.589714 20.4402 1.52305 19.5602C2.45638 18.6802 3.54971 18.2668 4.80305 18.3202C5.78971 18.3468 6.77638 18.5602 7.76305 18.9602C8.74971 19.3335 9.74971 19.7068 10.763 20.0802C11.803 20.4535 12.843 20.6402 13.883 20.6402C14.923 20.6402 15.643 20.5068 16.043 20.2402C16.443 19.9735 16.643 19.6135 16.643 19.1602C16.643 18.6268 16.363 18.1868 15.803 17.8402C15.243 17.4935 14.5364 17.2268 13.683 17.0402L11.723 16.5602C9.69638 16.0802 7.88305 15.5468 6.28305 14.9602C4.68305 14.3468 3.41638 13.5468 2.48305 12.5602C1.57638 11.5468 1.12305 10.2002 1.12305 8.52018C1.12305 6.68018 1.62971 5.18684 2.64305 4.04017C3.65638 2.86684 5.02971 2.01351 6.76305 1.48018C8.49638 0.946842 10.4297 0.680176 12.563 0.680176C14.7497 0.680176 16.6697 0.906842 18.323 1.36018C19.9764 1.81351 21.2564 2.46684 22.163 3.32018C23.0964 4.17351 23.563 5.21351 23.563 6.44018C23.563 7.74684 23.203 8.77351 22.483 9.52018C21.7897 10.2402 20.8564 10.6002 19.683 10.6002C18.9097 10.6002 18.0964 10.4668 17.243 10.2002C16.4164 9.93351 15.5364 9.68018 14.603 9.44018C13.6964 9.17351 12.723 9.04017 11.683 9.04017C10.7497 9.04017 10.043 9.18684 9.56305 9.48018C9.08305 9.74684 8.84305 10.1068 8.84305 10.5602C8.84305 11.1202 9.16305 11.5335 9.80305 11.8002C10.443 12.0668 11.4964 12.3868 12.963 12.7602L15.203 13.2802C17.043 13.7335 18.6564 14.2802 20.043 14.9202C21.4297 15.5602 22.5097 16.4002 23.283 17.4402C24.0564 18.4802 24.443 19.8402 24.443 21.5202C24.443 23.5468 23.9631 25.2002 23.003 26.4802C22.043 27.7335 20.7097 28.6535 19.003 29.2402C17.2964 29.8268 15.2964 30.1202 13.003 30.1202Z" fill="white"/>
</svg>
