<svg width="234" height="31" viewBox="0 0 234 31" fill="none" xmlns="http://www.w3.org/2000/svg">
<path d="M13.0023 30.12C11.509 30.12 10.0023 29.9733 8.48234 29.68C6.98901 29.36 5.60234 28.9067 4.32234 28.32C3.06901 27.7067 2.05568 26.9733 1.28234 26.12C0.50901 25.24 0.122344 24.2267 0.122344 23.08C0.122344 21.6133 0.58901 20.44 1.52234 19.56C2.45568 18.68 3.54901 18.2667 4.80234 18.32C5.78901 18.3467 6.77568 18.56 7.76234 18.96C8.74901 19.3333 9.74901 19.7067 10.7623 20.08C11.8023 20.4533 12.8423 20.64 13.8823 20.64C14.9223 20.64 15.6423 20.5067 16.0423 20.24C16.4423 19.9733 16.6423 19.6133 16.6423 19.16C16.6423 18.6267 16.3623 18.1867 15.8023 17.84C15.2423 17.4933 14.5357 17.2267 13.6823 17.04L11.7223 16.56C9.69568 16.08 7.88234 15.5467 6.28234 14.96C4.68234 14.3467 3.41568 13.5467 2.48234 12.56C1.57568 11.5467 1.12234 10.2 1.12234 8.52C1.12234 6.68 1.62901 5.18667 2.64234 4.04C3.65568 2.86667 5.02901 2.01333 6.76234 1.48C8.49568 0.946665 10.429 0.679998 12.5623 0.679998C14.749 0.679998 16.669 0.906665 18.3223 1.36C19.9757 1.81333 21.2557 2.46666 22.1623 3.32C23.0957 4.17333 23.5623 5.21333 23.5623 6.44C23.5623 7.74667 23.2023 8.77333 22.4823 9.52C21.789 10.24 20.8557 10.6 19.6823 10.6C18.909 10.6 18.0957 10.4667 17.2423 10.2C16.4157 9.93333 15.5357 9.68 14.6023 9.44C13.6957 9.17333 12.7223 9.04 11.6823 9.04C10.749 9.04 10.0423 9.18667 9.56234 9.48C9.08234 9.74667 8.84234 10.1067 8.84234 10.56C8.84234 11.12 9.16234 11.5333 9.80234 11.8C10.4423 12.0667 11.4957 12.3867 12.9623 12.76L15.2023 13.28C17.0423 13.7333 18.6557 14.28 20.0423 14.92C21.429 15.56 22.509 16.4 23.2823 17.44C24.0557 18.48 24.4423 19.84 24.4423 21.52C24.4423 23.5467 23.9623 25.2 23.0023 26.48C22.0423 27.7333 20.709 28.6533 19.0023 29.24C17.2957 29.8267 15.2957 30.12 13.0023 30.12ZM29.2739 30C27.4872 29.7333 26.3272 28.92 25.7939 27.56C25.2606 26.1733 25.3672 24.4267 26.1139 22.32L31.3939 7.32C31.8739 5.93333 32.4206 4.74667 33.0339 3.76C33.6739 2.77333 34.4606 2.01333 35.3939 1.48C36.3539 0.946665 37.5406 0.679998 38.9539 0.679998C41.0872 0.679998 42.6872 1.26667 43.7539 2.44C44.8472 3.61333 45.7539 5.24 46.4739 7.32L51.7139 22.32C52.4606 24.4267 52.5939 26.1733 52.1139 27.56C51.6606 28.92 50.5272 29.7333 48.7139 30C47.2472 30.1867 45.9672 30.0133 44.8739 29.48C43.8072 28.9467 43.1672 28.08 42.9539 26.88C42.7939 26.08 42.7672 25.4133 42.8739 24.88C43.0072 24.3467 43.1272 23.92 43.2339 23.6C43.3139 23.3333 43.3139 23.08 43.2339 22.84C43.1806 22.5733 42.9806 22.44 42.6339 22.44H35.1939C34.8472 22.44 34.6339 22.5733 34.5539 22.84C34.5006 23.08 34.5272 23.3333 34.6339 23.6C34.7406 23.92 34.8472 24.3467 34.9539 24.88C35.0606 25.4133 35.0472 26.08 34.9139 26.88C34.7006 28.08 34.0739 28.9467 33.0339 29.48C31.9939 30.0133 30.7406 30.1867 29.2739 30ZM41.8739 16.84L39.7939 10.32C39.7406 10.0533 39.6472 9.85333 39.5139 9.72C39.4072 9.56 39.2206 9.48 38.9539 9.48C38.6872 9.48 38.4872 9.56 38.3539 9.72C38.2472 9.85333 38.1539 10.0533 38.0739 10.32L36.0339 16.84H41.8739ZM63.1505 30.12C61.3638 30.12 59.8838 29.7733 58.7105 29.08C57.5638 28.3867 56.6171 27.3867 55.8705 26.08C55.1505 24.7733 54.4971 23.1867 53.9105 21.32L49.4305 6.96C49.0038 5.62666 49.0305 4.46666 49.5105 3.48C50.0171 2.46667 50.9105 1.77333 52.1905 1.4C53.3638 1.05333 54.4305 1.13333 55.3905 1.64C56.3505 2.12 57.0038 2.94667 57.3505 4.12L61.7105 17.96C62.1638 19.4533 62.7371 20.4533 63.4305 20.96C64.1505 21.44 64.9238 21.5467 65.7505 21.28C66.6038 21.04 67.1505 20.56 67.3905 19.84C67.6305 19.0933 67.5638 17.9733 67.1905 16.48C66.5771 13.8133 66.1638 11.72 65.9505 10.2C65.7371 8.68 65.6305 7.48 65.6305 6.6C65.6305 5.10667 66.0305 3.82667 66.8305 2.76C67.6571 1.66666 68.9238 1.12 70.6305 1.12C72.3105 1.12 73.5238 1.66666 74.2705 2.76C75.0438 3.82667 75.4305 5.10667 75.4305 6.6C75.4305 7.48 75.3105 8.38667 75.0705 9.32C74.8305 10.2533 74.5505 11.2133 74.2305 12.2L70.6705 22.96C70.1905 24.4 69.6571 25.6667 69.0705 26.76C68.5105 27.8267 67.7638 28.6533 66.8305 29.24C65.9238 29.8267 64.6971 30.12 63.1505 30.12ZM87.3955 29.92C86.0888 29.92 84.8355 29.8 83.6355 29.56C82.4621 29.32 81.4221 28.8667 80.5155 28.2C79.6355 27.5067 78.9288 26.52 78.3955 25.24C77.8888 23.9333 77.6355 22.2267 77.6355 20.12C77.6355 18.2267 77.8888 16.6 78.3955 15.24C78.9021 13.88 79.5021 12.8 80.1955 12C80.9155 11.2 81.5688 10.7067 82.1555 10.52L81.9555 9.76H81.2755C80.0488 9.76 79.0755 9.37333 78.3555 8.6C77.6621 7.8 77.3021 6.72 77.2755 5.36C77.2488 4.02667 77.5955 2.96 78.3155 2.16C79.0621 1.36 80.0488 0.96 81.2755 0.96H95.6355C98.4888 0.96 99.9155 2.29333 99.9155 4.96C99.9155 6.16 99.5688 7.12 98.8755 7.84C98.1821 8.56 97.1021 8.92 95.6355 8.92H87.3555C86.3688 8.92 85.8755 9.49333 85.8755 10.64V13.64C87.2088 13.3467 88.5955 13 90.0355 12.6C91.5021 12.2 92.8888 12 94.1955 12C95.4488 12 96.3821 12.28 96.9955 12.84C97.6355 13.3733 97.9555 14.1067 97.9555 15.04C97.9555 16 97.6355 16.76 96.9955 17.32C96.3821 17.8533 95.4488 18.1333 94.1955 18.16C92.8888 18.1867 91.5021 18 90.0355 17.6C88.5688 17.2 87.1688 16.8533 85.8355 16.56V21.8C85.8355 22.3067 85.9688 22.6667 86.2355 22.88C86.5288 23.0667 86.9821 22.9867 87.5955 22.64C88.9288 21.8667 90.2355 21.2533 91.5155 20.8C92.7955 20.32 94.0488 20.08 95.2755 20.08C97.0088 20.08 98.3155 20.5333 99.1955 21.44C100.102 22.3467 100.555 23.5333 100.555 25C100.555 26.5733 100.075 27.7867 99.1155 28.64C98.1821 29.4933 96.6621 29.92 94.5555 29.92H87.3955ZM102.566 8.6C101.792 6.94667 101.619 5.46667 102.046 4.16C102.472 2.82667 103.286 1.89333 104.486 1.36C105.712 0.826665 106.952 0.826665 108.206 1.36C109.486 1.86667 110.419 2.94667 111.006 4.6C111.299 5.42667 111.512 6.38667 111.646 7.48C111.779 8.54667 111.926 9.58667 112.086 10.6C112.272 11.5867 112.566 12.4133 112.966 13.08C113.392 13.72 114.046 14.04 114.926 14.04C115.806 14.04 116.459 13.72 116.886 13.08C117.312 12.4133 117.606 11.5867 117.766 10.6C117.952 9.58667 118.099 8.54667 118.206 7.48C118.339 6.38667 118.552 5.42667 118.846 4.6C119.459 2.94667 120.392 1.86667 121.646 1.36C122.899 0.826665 124.139 0.826665 125.366 1.36C126.566 1.89333 127.379 2.82667 127.806 4.16C128.232 5.46667 128.059 6.94667 127.286 8.6C126.886 9.45333 126.352 10.2667 125.686 11.04C125.046 11.7867 124.339 12.56 123.566 13.36C122.792 14.16 122.019 15.0533 121.246 16.04C120.472 17 119.766 18.1067 119.126 19.36V26.2C119.126 27.2933 118.726 28.2 117.926 28.92C117.126 29.64 116.126 30 114.926 30C113.752 30 112.752 29.64 111.926 28.92C111.126 28.2 110.726 27.2933 110.726 26.2V19.36C110.112 18.1067 109.419 17 108.646 16.04C107.872 15.0533 107.099 14.16 106.326 13.36C105.552 12.56 104.832 11.7867 104.166 11.04C103.499 10.2667 102.966 9.45333 102.566 8.6ZM139.974 29.92C138.667 29.92 137.414 29.8 136.214 29.56C135.04 29.32 134 28.8667 133.094 28.2C132.214 27.5067 131.507 26.52 130.974 25.24C130.467 23.9333 130.214 22.2267 130.214 20.12C130.214 18.2267 130.467 16.6 130.974 15.24C131.48 13.88 132.08 12.8 132.774 12C133.494 11.2 134.147 10.7067 134.734 10.52L134.534 9.76H133.854C132.627 9.76 131.654 9.37333 130.934 8.6C130.24 7.8 129.88 6.72 129.854 5.36C129.827 4.02667 130.174 2.96 130.894 2.16C131.64 1.36 132.627 0.96 133.854 0.96H148.214C151.067 0.96 152.494 2.29333 152.494 4.96C152.494 6.16 152.147 7.12 151.454 7.84C150.76 8.56 149.68 8.92 148.214 8.92H139.934C138.947 8.92 138.454 9.49333 138.454 10.64V13.64C139.787 13.3467 141.174 13 142.614 12.6C144.08 12.2 145.467 12 146.774 12C148.027 12 148.96 12.28 149.574 12.84C150.214 13.3733 150.534 14.1067 150.534 15.04C150.534 16 150.214 16.76 149.574 17.32C148.96 17.8533 148.027 18.1333 146.774 18.16C145.467 18.1867 144.08 18 142.614 17.6C141.147 17.2 139.747 16.8533 138.414 16.56V21.8C138.414 22.3067 138.547 22.6667 138.814 22.88C139.107 23.0667 139.56 22.9867 140.174 22.64C141.507 21.8667 142.814 21.2533 144.094 20.8C145.374 20.32 146.627 20.08 147.854 20.08C149.587 20.08 150.894 20.5333 151.774 21.44C152.68 22.3467 153.134 23.5333 153.134 25C153.134 26.5733 152.654 27.7867 151.694 28.64C150.76 29.4933 149.24 29.92 147.134 29.92H139.974ZM158.024 30C156.237 29.7333 155.077 28.92 154.544 27.56C154.011 26.1733 154.117 24.4267 154.864 22.32L160.144 7.32C160.624 5.93333 161.171 4.74667 161.784 3.76C162.424 2.77333 163.211 2.01333 164.144 1.48C165.104 0.946665 166.291 0.679998 167.704 0.679998C169.837 0.679998 171.437 1.26667 172.504 2.44C173.597 3.61333 174.504 5.24 175.224 7.32L180.464 22.32C181.211 24.4267 181.344 26.1733 180.864 27.56C180.411 28.92 179.277 29.7333 177.464 30C175.997 30.1867 174.717 30.0133 173.624 29.48C172.557 28.9467 171.917 28.08 171.704 26.88C171.544 26.08 171.517 25.4133 171.624 24.88C171.757 24.3467 171.877 23.92 171.984 23.6C172.064 23.3333 172.064 23.08 171.984 22.84C171.931 22.5733 171.731 22.44 171.384 22.44H163.944C163.597 22.44 163.384 22.5733 163.304 22.84C163.251 23.08 163.277 23.3333 163.384 23.6C163.491 23.92 163.597 24.3467 163.704 24.88C163.811 25.4133 163.797 26.08 163.664 26.88C163.451 28.08 162.824 28.9467 161.784 29.48C160.744 30.0133 159.491 30.1867 158.024 30ZM170.624 16.84L168.544 10.32C168.491 10.0533 168.397 9.85333 168.264 9.72C168.157 9.56 167.971 9.48 167.704 9.48C167.437 9.48 167.237 9.56 167.104 9.72C166.997 9.85333 166.904 10.0533 166.824 10.32L164.784 16.84H170.624ZM202.233 30C200.899 30 199.846 29.6 199.073 28.8C198.299 27.9733 197.886 26.9067 197.833 25.6C197.726 23.3333 197.153 21.7333 196.113 20.8C195.099 19.84 193.739 19.36 192.033 19.36H191.233V25.76C191.233 27.1467 190.859 28.2 190.113 28.92C189.366 29.64 188.379 30 187.153 30C185.846 30 184.819 29.64 184.073 28.92C183.326 28.2 182.953 27.1467 182.953 25.76V20.12C182.953 17.2933 183.366 15.1467 184.193 13.68C185.046 12.2133 186.126 11.16 187.433 10.52L187.233 9.76H186.593C185.366 9.76 184.393 9.37333 183.673 8.6C182.979 7.8 182.606 6.72 182.553 5.36C182.526 4.02667 182.886 2.94667 183.633 2.12C184.379 1.29333 185.366 0.879998 186.593 0.879998H196.793C199.646 0.879998 201.953 1.57333 203.713 2.96C205.473 4.34667 206.353 6.56 206.353 9.6C206.353 11.1733 206.086 12.4933 205.553 13.56C205.019 14.6 204.339 15.4 203.513 15.96C202.686 16.52 201.819 16.8533 200.913 16.96V17.48C202.566 17.88 203.926 18.76 204.993 20.12C206.086 21.48 206.633 23.3067 206.633 25.6C206.633 27.0667 206.233 28.1733 205.433 28.92C204.659 29.64 203.593 30 202.233 30ZM191.033 13.24C191.033 13.8267 191.139 14.2133 191.353 14.4C191.566 14.5867 191.966 14.68 192.553 14.68H196.313C197.433 14.68 198.246 14.4267 198.753 13.92C199.259 13.4133 199.513 12.7067 199.513 11.8C199.513 10.8667 199.259 10.1467 198.753 9.64C198.246 9.13333 197.433 8.88 196.313 8.88H192.553C191.966 8.88 191.566 8.96 191.353 9.12C191.139 9.28 191.033 9.66667 191.033 10.28V13.24ZM212.536 30C211.202 30 210.189 29.5867 209.496 28.76C208.802 27.9333 208.456 26.8267 208.456 25.44V6.68C208.456 5.29333 208.709 4.17333 209.216 3.32C209.749 2.44 210.429 1.8 211.256 1.4C212.109 0.999999 213.029 0.799999 214.016 0.799999C215.482 0.799999 216.722 1.18667 217.736 1.96C218.749 2.73333 219.536 4.09333 220.096 6.04L224.416 20.8H225.056V5.44C225.056 4.02666 225.416 2.92 226.136 2.12C226.856 1.29333 227.882 0.879998 229.216 0.879998C230.602 0.879998 231.629 1.29333 232.296 2.12C232.989 2.92 233.336 4.02666 233.336 5.44V23.52C233.336 25.76 232.842 27.4133 231.856 28.48C230.869 29.5467 229.482 30.08 227.696 30.08C225.882 30.08 224.469 29.6 223.456 28.64C222.442 27.68 221.669 26.2667 221.136 24.4L218.296 14.68C218.242 14.4133 218.136 14.1733 217.976 13.96C217.842 13.72 217.656 13.6 217.416 13.6C217.122 13.6 216.922 13.72 216.816 13.96C216.709 14.1733 216.656 14.4133 216.656 14.68V25.44C216.656 26.8267 216.309 27.9333 215.616 28.76C214.922 29.5867 213.896 30 212.536 30Z" fill="#F2600C"/>
</svg>
